<svg width="32" height="33" viewBox="0 0 32 33" fill="none" xmlns="http://www.w3.org/2000/svg">
<path d="M22.5626 22.1359L22.1099 22.5884C21.86 22.8384 21.4547 22.8384 21.2047 22.5884L16 17.3836L10.7952 22.5884C10.5453 22.8384 10.14 22.8384 9.89006 22.5884L9.43747 22.1358C9.18751 21.8859 9.18751 21.4806 9.43747 21.2306L14.6423 16.0259L9.43747 10.8211C9.18751 10.5712 9.18751 10.1659 9.43747 9.91594L9.89005 9.46336C10.14 9.2134 10.5453 9.2134 10.7952 9.46336L16 14.6681L21.2047 9.46335C21.4547 9.21339 21.86 9.21339 22.1099 9.46335L22.5626 9.91593C22.8125 10.1659 22.8125 10.5712 22.5626 10.8211L17.3578 16.0259L22.5626 21.2306C22.8125 21.4806 22.8125 21.8859 22.5626 22.1359Z" fill="white"/>
</svg>
