<svg width="14" height="24" viewBox="0 0 14 24" fill="none" xmlns="http://www.w3.org/2000/svg">
<path d="M7 23.75C3.27734 23.75 0.25 20.7227 0.25 17V5C0.25 2.38086 2.38086 0.25 5 0.25C7.61914 0.25 9.75 2.38086 9.75 5V16C9.75 17.5156 8.51562 18.75 7 18.75C5.48438 18.75 4.25 17.5156 4.25 16V7C4.25 6.58594 4.58594 6.25 5 6.25C5.41406 6.25 5.75 6.58594 5.75 7V16C5.75 16.6895 6.31055 17.25 7 17.25C7.68945 17.25 8.25 16.6895 8.25 16V5C8.25 3.20801 6.79297 1.75 5 1.75C3.20703 1.75 1.75 3.20801 1.75 5V17C1.75 19.8945 4.10547 22.25 7 22.25C9.89453 22.25 12.25 19.8945 12.25 17V7C12.25 6.58594 12.5859 6.25 13 6.25C13.4141 6.25 13.75 6.58594 13.75 7V17C13.75 20.7227 10.7227 23.75 7 23.75Z" fill="#6B7280"/>
</svg>
