<svg width="1212" height="144" viewBox="0 0 1212 144" fill="none" xmlns="http://www.w3.org/2000/svg">
<g opacity="0.23">
<g clip-path="url(#clip0_1_349)">
<path d="M71.5005 143.741C110.989 143.741 143 111.73 143 72.2413C143 32.753 110.989 0.741333 71.5005 0.741333C32.0121 0.741333 0.000488281 32.753 0.000488281 72.2413C0.000488281 111.73 32.0121 143.741 71.5005 143.741Z" fill="#004532"/>
</g>
<path d="M211.549 8.22059C190.828 2.69722 169.53 14.9327 163.98 35.547C160.34 49.0538 164.368 62.8086 173.409 72.2444C168.905 76.9237 165.661 82.6685 163.98 88.9419C158.425 109.558 170.723 130.745 191.445 136.268C197.806 137.969 204.496 138.03 210.887 136.445C217.279 134.86 223.165 131.68 227.994 127.203C232.649 131.528 238.297 134.641 244.439 136.268C265.161 141.792 286.459 129.558 292.012 108.944C295.649 95.435 291.623 81.6779 282.582 72.2466C287.087 67.5666 290.331 61.821 292.012 55.5469C297.564 34.9325 285.266 13.7462 264.547 8.22283C258.185 6.521 251.496 6.45966 245.104 8.04452C238.712 9.62938 232.826 12.8087 227.997 17.2855C223.341 12.961 217.692 9.84635 211.549 8.22059Z" fill="#093554"/>
<g clip-path="url(#clip1_1_349)">
<path d="M367.231 69.4573C398.716 69.4573 424.24 43.9332 424.24 12.4478C424.24 -19.0377 398.716 27.1354 367.231 27.1354C335.745 27.1354 310.221 -19.0377 310.221 12.4478C310.221 43.9332 335.745 69.4573 367.231 69.4573Z" fill="#004532"/>
</g>
<g clip-path="url(#clip2_1_349)">
<path d="M367.231 138.457C398.716 138.457 424.24 112.933 424.24 81.4478C424.24 49.9623 398.716 96.1354 367.231 96.1354C335.745 96.1354 310.221 49.9623 310.221 81.4478C310.221 112.933 335.745 138.457 367.231 138.457Z" fill="#004532"/>
</g>
<rect x="437" y="0.742188" width="46.2119" height="143" fill="#074A5F"/>
<rect x="495.212" y="0.742188" width="46.2119" height="143" fill="#074A5F"/>
<rect x="553.424" y="0.742188" width="46.2119" height="143" fill="#074A5F"/>
<g clip-path="url(#clip3_1_349)">
<path d="M683.136 143.741C722.625 143.741 754.636 111.73 754.636 72.2413C754.636 32.753 722.625 0.741333 683.136 0.741333C643.648 0.741333 611.636 32.753 611.636 72.2413C611.636 111.73 643.648 143.741 683.136 143.741Z" fill="#004532"/>
</g>
<path d="M823.185 8.22059C802.464 2.69722 781.166 14.9327 775.615 35.547C771.976 49.0538 776.004 62.8086 785.044 72.2444C780.541 76.9237 777.296 82.6685 775.615 88.9419C770.061 109.558 782.359 130.745 803.08 136.268C809.442 137.969 816.131 138.03 822.523 136.445C828.915 134.86 834.801 131.68 839.63 127.203C844.285 131.528 849.933 134.641 856.075 136.268C876.797 141.792 898.095 129.558 903.647 108.944C907.285 95.435 903.258 81.6779 894.218 72.2466C898.722 67.5666 901.966 61.821 903.647 55.5469C909.2 34.9325 896.902 13.7462 876.182 8.22283C869.821 6.521 863.131 6.45966 856.74 8.04452C850.348 9.62938 844.462 12.8087 839.632 17.2855C834.977 12.961 829.328 9.84635 823.185 8.22059Z" fill="#093554"/>
<g clip-path="url(#clip4_1_349)">
<path d="M978.866 69.4573C1010.35 69.4573 1035.88 43.9332 1035.88 12.4478C1035.88 -19.0377 1010.35 27.1354 978.866 27.1354C947.381 27.1354 921.857 -19.0377 921.857 12.4478C921.857 43.9332 947.381 69.4573 978.866 69.4573Z" fill="#004532"/>
</g>
<g clip-path="url(#clip5_1_349)">
<path d="M978.866 138.457C1010.35 138.457 1035.88 112.933 1035.88 81.4478C1035.88 49.9623 1010.35 96.1354 978.866 96.1354C947.381 96.1354 921.857 49.9623 921.857 81.4478C921.857 112.933 947.381 138.457 978.866 138.457Z" fill="#004532"/>
</g>
<rect x="1048.64" y="0.742188" width="46.2119" height="143" fill="#074A5F"/>
<rect x="1106.85" y="0.742188" width="46.2119" height="143" fill="#074A5F"/>
<rect x="1165.06" y="0.742188" width="46.2119" height="143" fill="#074A5F"/>
</g>
<defs>
<clipPath id="clip0_1_349">
<rect width="143" height="143" fill="white" transform="translate(0 0.742188)"/>
</clipPath>
<clipPath id="clip1_1_349">
<rect width="115" height="69" fill="white" transform="translate(310 0.742188)"/>
</clipPath>
<clipPath id="clip2_1_349">
<rect width="115" height="69" fill="white" transform="translate(310 69.7422)"/>
</clipPath>
<clipPath id="clip3_1_349">
<rect width="143" height="143" fill="white" transform="translate(611.636 0.742188)"/>
</clipPath>
<clipPath id="clip4_1_349">
<rect width="115" height="69" fill="white" transform="translate(921.636 0.742188)"/>
</clipPath>
<clipPath id="clip5_1_349">
<rect width="115" height="69" fill="white" transform="translate(921.636 69.7422)"/>
</clipPath>
</defs>
</svg>
