<svg width="16" height="16" viewBox="0 0 16 16" fill="none" xmlns="http://www.w3.org/2000/svg">
<path d="M8.10054 5.39269C9.57835 5.39269 10.7764 6.59072 10.7764 8.06855C10.7764 9.54636 9.57835 10.7444 8.10054 10.7444C6.6227 10.7444 5.42468 9.54636 5.42468 8.06855C5.42468 7.58115 5.55498 7.12418 5.78266 6.73062M12.1143 4.05477C12.1143 4.23949 11.9645 4.38925 11.7798 4.38925C11.5951 4.38925 11.4454 4.23949 11.4454 4.05477M12.1143 4.05477C12.1143 3.87004 11.9645 3.72028 11.7798 3.72028C11.5951 3.72028 11.4454 3.87004 11.4454 4.05477M12.1143 4.05477H11.4454M6.76261 14.7582H9.43847C11.3118 14.7582 12.2484 14.7582 12.9639 14.3936C13.5933 14.073 14.105 13.5613 14.4256 12.9319C14.7902 12.2164 14.7902 11.2798 14.7902 9.40648V6.73062C14.7902 4.85735 14.7902 3.92071 14.4256 3.20521C14.105 2.57584 13.5933 2.06415 12.9639 1.74347C12.2484 1.37891 11.3118 1.37891 9.43847 1.37891H6.76261C4.88933 1.37891 3.95269 1.37891 3.2372 1.74347C2.60783 2.06415 2.09613 2.57584 1.77545 3.20521C1.41089 3.92071 1.41089 4.85735 1.41089 6.73062V9.40648C1.41089 11.2798 1.41089 12.2164 1.77545 12.9319C2.09613 13.5613 2.60783 14.073 3.2372 14.3936C3.95269 14.7582 4.88933 14.7582 6.76261 14.7582Z" stroke="white" stroke-width="1.00345" stroke-linecap="round" stroke-linejoin="round"/>
</svg>
