<svg width="150" height="63" viewBox="0 0 150 63" fill="none" xmlns="http://www.w3.org/2000/svg">
<g clip-path="url(#clip0_1_641)">
<path fill-rule="evenodd" clip-rule="evenodd" d="M133.504 35.4695C127.813 34.7611 123.681 37.1932 119.69 39.956C115.322 42.9785 111.142 46.4496 105.876 46.4733C96.9505 46.4733 97.1394 33.4387 96.431 21.9154C95.8643 12.1159 94.7781 3.19006 85.7342 0.0258789C91.2597 0.616212 94.9906 0.923186 98.084 2.81225C101.177 4.70132 103.326 9.04616 104.507 14.2411C105.725 20.6037 106.514 27.0411 106.868 33.5096C107.695 43.6397 120.304 32.9192 121.036 32.565C111.945 28.9522 111.591 22.1988 110.812 16.2246C110.198 10.8172 109.324 5.9292 100.422 2.78863C104.738 3.71761 109.225 3.46473 113.409 2.05663C116.405 0.863282 119.657 0.456823 122.854 0.87596C127.577 1.91495 129.537 7.95996 132.134 15.3037C135.062 23.4975 138.864 33.4151 146.444 35.8001C142.595 36.1779 139.832 36.6265 136.574 34.6194C133.315 32.6123 130.033 27.2993 127.577 21.6557C125.216 16.4135 123.563 10.888 122.122 6.59038C120.257 1.04125 111.874 6.0709 111.449 6.14174C119.312 9.49483 120.21 14.5953 121.249 20.0972C122.406 26.1186 123.799 32.6123 133.291 35.4695M148.191 34.3833C148.792 34.1789 149.3 33.7672 149.625 33.2219C149.95 32.6766 150.069 32.0335 149.962 31.408C149.632 27.866 143.87 22.6002 135.464 17.6414C138.809 20.4901 141.329 24.1841 142.76 28.3382C144.461 32.1872 145.806 35.2806 148.191 34.3833ZM81.8852 0.592593C77.1626 0.970406 75.2027 3.54426 76.525 6.9918C77.8473 10.4393 82.6881 14.9967 90.8347 18.3734C88.2136 16.8622 86.8676 13.3674 86.112 9.94346C85.3564 6.51953 85.0966 3.52065 84.6952 2.03301C84.2938 0.545368 83.8924 0.450914 81.9088 0.592593" fill="#C08D54"/>
<path d="M82.8775 29.8723C82.9962 29.9803 83.1318 30.0681 83.2789 30.1321C83.4329 30.209 83.6027 30.249 83.7748 30.249C83.9469 30.249 84.1167 30.209 84.2707 30.1321C84.4281 30.0743 84.5725 29.986 84.6957 29.8723C84.8117 29.76 84.9005 29.6227 84.9554 29.4709C84.9911 29.2996 84.9911 29.1227 84.9554 28.9514C84.9879 28.7877 84.9879 28.6192 84.9554 28.4555C84.9037 28.2953 84.8147 28.1496 84.6956 28.0306C84.5766 27.9115 84.4309 27.8225 84.2707 27.7707C84.1167 27.6938 83.9469 27.6538 83.7748 27.6538C83.6027 27.6538 83.4329 27.6938 83.2789 27.7707C83.1271 27.8257 82.9898 27.9145 82.8775 28.0305C82.7568 28.1528 82.6606 28.2971 82.5941 28.4555C82.5218 28.6112 82.4817 28.7799 82.4761 28.9514C82.4784 29.131 82.5186 29.308 82.5941 29.4709C82.6667 29.6189 82.7624 29.7543 82.8775 29.8723Z" fill="white"/>
<path d="M13.8766 41.3487C14.4038 41.376 14.9309 41.2958 15.4261 41.1132C15.9214 40.9305 16.3743 40.6491 16.7575 40.2861C17.5647 41.0123 18.6242 41.3937 19.7091 41.3487H83.9373C84.502 41.3631 85.0637 41.2616 85.5876 41.0504C86.1115 40.8392 86.5866 40.5228 86.9834 40.1208C87.3488 39.7704 87.6381 39.3484 87.8331 38.8811C88.0281 38.4139 88.1247 37.9115 88.1169 37.4053V31.7381H85.5667V37.4289C85.5763 37.6951 85.531 37.9604 85.4335 38.2082C85.336 38.4561 85.1884 38.6811 84.9999 38.8693C84.7199 39.1579 84.3392 39.3271 83.9373 39.3416H78.5063L78.2229 39.6249C78.7364 39.0843 79.1367 38.4466 79.4003 37.7491C79.6638 37.0517 79.7854 36.3086 79.7578 35.5635C79.8406 34.0174 79.3151 32.5003 78.2937 31.3367C77.7161 30.7459 77.0195 30.2846 76.2501 29.9834C75.4807 29.6821 74.6561 29.5478 73.8308 29.5893H67.2663C66.5122 29.5048 65.7489 29.612 65.0472 29.901C64.3456 30.1899 63.7281 30.6512 63.2521 31.2422C63.1236 30.7705 62.933 30.3179 62.6853 29.8963L60.5838 31.1714C61.1506 32.3714 61.4025 33.696 61.3158 35.0203V39.3416H19.7091C19.5091 39.3396 19.3117 39.2967 19.1289 39.2155C18.9462 39.1343 18.782 39.0164 18.6465 38.8693C18.4502 38.6859 18.2958 38.4622 18.1939 38.2136C18.092 37.965 18.0451 37.6974 18.0562 37.4289V27.2043H15.506V37.4053C15.5156 37.6715 15.4703 37.9368 15.3728 38.1846C15.2753 38.4324 15.1277 38.6575 14.9392 38.8457C14.8038 38.9928 14.6396 39.1106 14.4568 39.1919C14.2741 39.2731 14.0766 39.316 13.8766 39.318H13.0974C12.7814 39.3418 12.4639 39.3019 12.1637 39.2005C11.8635 39.0991 11.5867 38.9382 11.35 38.7276C11.116 38.4607 10.9371 38.1501 10.8236 37.8137C10.7102 37.4774 10.6644 37.1219 10.6888 36.7677V32.4937C10.6614 31.9552 10.4672 31.4385 10.1329 31.0154C9.79862 30.5923 9.34096 30.2837 8.82338 30.1324C7.91322 29.7444 6.93187 29.5513 5.94255 29.5657C5.11891 29.5196 4.2949 29.6495 3.52538 29.9468C2.75585 30.244 2.05849 30.7017 1.47964 31.2894C0.462677 32.4556 -0.0621485 33.9709 0.0156263 35.5162C-0.0615205 36.5244 0.148077 37.5339 0.620227 38.4281C1.09238 39.3222 1.8078 40.0646 2.68391 40.5695C3.39827 41.0052 4.20966 41.2568 5.04524 41.3015H5.44666C6.15088 41.301 6.84842 41.1647 7.50104 40.9001C8.16207 40.6831 8.76131 40.3106 9.2484 39.8138C9.88698 40.4698 10.711 40.9148 11.6097 41.089H12.6251C12.9789 41.1126 13.3339 41.1126 13.6877 41.089M7.9497 36.4844C7.91273 37.0033 7.72873 37.5009 7.41929 37.9191C7.10984 38.3373 6.68773 38.6587 6.2023 38.8457C5.90199 38.967 5.58162 39.0311 5.25775 39.0346H5.06887C4.6796 39.0048 4.3012 38.892 3.95904 38.704C3.39688 38.3346 2.94738 37.8174 2.65995 37.2092C2.37251 36.601 2.25826 35.9254 2.32972 35.2565C2.25131 34.1691 2.59846 33.0938 3.29788 32.2576C3.60589 31.9485 3.97494 31.7069 4.38151 31.5483C4.78807 31.3898 5.22323 31.3177 5.65921 31.3367C6.22562 31.3219 6.78879 31.4265 7.31213 31.6436C7.66633 31.7853 7.85523 31.9742 7.85523 32.2104L7.9497 36.4844ZM76.0268 38.1137C75.7218 38.4283 75.3538 38.675 74.9469 38.8377C74.54 39.0005 74.1034 39.0756 73.6655 39.0582H63.866V35.2801C63.7813 34.1848 64.1289 33.0999 64.8342 32.2576C65.1425 31.9503 65.5122 31.7115 65.9191 31.5569C66.326 31.4023 66.7609 31.3353 67.1955 31.3603H73.76C74.1946 31.3353 74.6295 31.4023 75.0364 31.5569C75.4433 31.7115 75.813 31.9503 76.1213 32.2576C76.8179 33.1047 77.1642 34.186 77.0895 35.2801C77.1185 35.7944 77.0458 36.3094 76.8756 36.7956C76.7054 37.2818 76.4411 37.7297 76.0977 38.1137" fill="white"/>
<path d="M15.5054 45.9543H18.1028L25.7063 58.9889V45.9543H28.0204V62.5545H25.423L17.8195 49.4019V62.5545H15.5054V45.9543Z" fill="white"/>
<path d="M36.5934 45.9058H38.9547L44.9525 62.4351H42.6148L40.9619 57.4999H34.5627L32.7681 62.4351H30.4067L36.5934 45.9058ZM37.7505 48.2671L35.1766 55.5636H40.2535L37.7505 48.2671Z" fill="white"/>
<path d="M46.2259 57.0046H48.5873V57.5005C48.5607 57.7595 48.5607 58.0206 48.5873 58.2797C48.6129 58.479 48.6524 58.6762 48.7053 58.87C48.777 59.0328 48.8725 59.184 48.9887 59.3187C49.1132 59.4696 49.256 59.6044 49.4138 59.7201C50.4065 60.4956 51.6521 60.8744 52.9085 60.7827C53.4727 60.7835 54.0352 60.7201 54.5851 60.5938C55.0342 60.4869 55.4642 60.3117 55.8602 60.0743C56.1981 59.8591 56.4811 59.568 56.6867 59.2242C56.8973 58.9019 57.0044 58.5229 56.9936 58.138C56.9995 57.7554 56.9123 57.3771 56.7395 57.0357C56.5667 56.6943 56.3136 56.4 56.0018 56.1781C55.718 55.9652 55.398 55.8052 55.0573 55.7058L49.9568 54.4071C49.0335 54.1064 48.2146 53.5496 47.5955 52.8014C47.1176 52.1068 46.8623 51.2832 46.8635 50.4401C46.8558 49.7707 47.0011 49.1084 47.2885 48.5038C47.573 47.9237 47.9847 47.4152 48.4928 47.0161C49.0479 46.5785 49.6809 46.25 50.3583 46.048C51.1229 45.8111 51.9191 45.6917 52.7196 45.6938C53.3867 45.6893 54.0521 45.7606 54.7031 45.9063C55.2923 46.0312 55.8635 46.2296 56.4033 46.4966C56.8803 46.7444 57.3116 47.0719 57.6784 47.4648C58.0234 47.8269 58.2959 48.2517 58.4813 48.7163C58.5608 48.9718 58.6239 49.232 58.6702 49.4955C58.6961 49.8335 58.6961 50.1729 58.6702 50.5109V51.0776H56.3088C56.3088 50.7943 56.3088 50.5818 56.3088 50.3928C56.3244 50.2279 56.3244 50.0619 56.3088 49.897C56.2837 49.767 56.2441 49.6403 56.1908 49.5191C56.1371 49.3963 56.0739 49.2779 56.0018 49.1649C55.8589 48.9429 55.6745 48.7505 55.4588 48.5982C55.2266 48.424 54.9726 48.2811 54.7031 48.1732C54.0683 47.9381 53.3966 47.8181 52.7196 47.819C52.2577 47.8115 51.7969 47.8671 51.35 47.9843C50.9552 48.087 50.5801 48.2545 50.2402 48.4802C49.9433 48.6942 49.694 48.9676 49.5082 49.283C49.3343 49.61 49.245 49.9753 49.2484 50.3456C49.2214 50.5731 49.2214 50.8029 49.2484 51.0304C49.2945 51.2328 49.3921 51.4199 49.5318 51.5735C49.689 51.7432 49.8724 51.8867 50.0749 51.9986C50.3653 52.1442 50.6651 52.2704 50.9722 52.3764L56.2852 53.7223C57.1767 53.9564 57.9628 54.4851 58.5158 55.2224C59.0688 55.9598 59.3562 56.8625 59.3313 57.7838C59.3345 58.4533 59.2145 59.1177 58.9771 59.7437C58.7227 60.3758 58.3269 60.9412 57.8201 61.3966C57.2286 61.9159 56.5377 62.3096 55.7893 62.5537C54.8275 62.8574 53.8224 63.001 52.8141 62.9788C51.0412 63.1088 49.2766 62.6344 47.808 61.6328C47.2273 61.1471 46.7718 60.5288 46.48 59.8302C46.1882 59.1316 46.0687 58.373 46.1315 57.6185L46.2259 57.0046Z" fill="white"/>
<path d="M62.4048 45.9543H64.7189V60.4766H73.1017V62.5545H62.4048V45.9543Z" fill="white"/>
<path d="M79.6861 45.9058H82.0474L88.0216 62.4351H85.5894L83.9365 57.4999H77.5373L75.7427 62.4351H73.3813L79.6861 45.9058ZM80.8432 48.2671L78.2693 55.5636H83.2517L80.8432 48.2671Z" fill="white"/>
</g>
<defs>
<clipPath id="clip0_1_641">
<rect width="150" height="62.974" fill="white" transform="translate(0 0.0258789)"/>
</clipPath>
</defs>
</svg>
