<svg width="150" height="64" viewBox="0 0 150 64" fill="none" xmlns="http://www.w3.org/2000/svg">
<g clip-path="url(#clip0_1_326)">
<path fill-rule="evenodd" clip-rule="evenodd" d="M133.504 35.9565C127.813 35.2481 123.681 37.6803 119.69 40.4431C115.322 43.4656 111.142 46.9367 105.876 46.9603C96.9505 46.9603 97.1394 33.9258 96.431 22.4025C95.8643 12.6029 94.7781 3.67712 85.7342 0.512939C91.2597 1.10327 94.9906 1.41025 98.084 3.29931C101.177 5.18838 103.326 9.53322 104.507 14.7281C105.725 21.0908 106.514 27.5281 106.868 33.9966C107.695 44.1267 120.304 33.4063 121.036 33.0521C111.945 29.4392 111.591 22.6858 110.812 16.7117C110.198 11.3042 109.324 6.41626 100.422 3.27569C104.738 4.20467 109.225 3.95179 113.409 2.54369C116.405 1.35034 119.657 0.943884 122.854 1.36302C127.577 2.40201 129.537 8.44702 132.134 15.7908C135.062 23.9846 138.864 33.9022 146.444 36.2871C142.595 36.6649 139.832 37.1136 136.574 35.1064C133.315 33.0993 130.033 27.7863 127.577 22.1427C125.216 16.9006 123.563 11.3751 122.122 7.07744C120.257 1.52831 111.874 6.55796 111.449 6.6288C119.312 9.98189 120.21 15.0824 121.249 20.5843C122.406 26.6057 123.799 33.0993 133.291 35.9565M148.191 34.8703C148.792 34.666 149.3 34.2542 149.625 33.7089C149.95 33.1637 150.069 32.5206 149.962 31.895C149.632 28.353 143.87 23.0873 135.464 18.1285C138.809 20.9771 141.329 24.6712 142.76 28.8253C144.461 32.6743 145.806 35.7676 148.191 34.8703ZM81.8852 1.07965C77.1626 1.45747 75.2027 4.03132 76.525 7.47886C77.8473 10.9264 82.6881 15.4838 90.8347 18.8605C88.2136 17.3492 86.8676 13.8545 86.112 10.4305C85.3564 7.00659 85.0966 4.00771 84.6952 2.52007C84.2938 1.03243 83.8924 0.937974 81.9088 1.07965" fill="#C08D54"/>
<path d="M82.8775 30.3594C82.9962 30.4674 83.1318 30.5551 83.2789 30.6191C83.4329 30.696 83.6027 30.7361 83.7748 30.7361C83.9469 30.7361 84.1167 30.696 84.2707 30.6191C84.4281 30.5613 84.5725 30.4731 84.6957 30.3594C84.8117 30.2471 84.9005 30.1098 84.9554 29.958C84.9911 29.7866 84.9911 29.6098 84.9554 29.4385C84.9879 29.2748 84.9879 29.1063 84.9554 28.9426C84.9037 28.7824 84.8147 28.6367 84.6956 28.5176C84.5766 28.3986 84.4309 28.3095 84.2707 28.2578C84.1167 28.1809 83.9469 28.1409 83.7748 28.1409C83.6027 28.1409 83.4329 28.1809 83.2789 28.2578C83.1271 28.3128 82.9898 28.4016 82.8775 28.5176C82.7568 28.6398 82.6606 28.7841 82.5941 28.9426C82.5218 29.0983 82.4817 29.2669 82.4761 29.4385C82.4784 29.618 82.5186 29.795 82.5941 29.958C82.6667 30.1059 82.7624 30.2414 82.8775 30.3594Z" fill="#626366"/>
<path d="M13.8766 41.8358C14.4038 41.863 14.9309 41.7829 15.4261 41.6002C15.9214 41.4176 16.3743 41.1362 16.7575 40.7732C17.5647 41.4994 18.6242 41.8808 19.7091 41.8358H83.9373C84.502 41.8502 85.0637 41.7486 85.5876 41.5375C86.1115 41.3263 86.5866 41.0099 86.9834 40.6079C87.3488 40.2574 87.6381 39.8354 87.8331 39.3682C88.0281 38.901 88.1247 38.3986 88.1169 37.8924V32.2252H85.5667V37.916C85.5763 38.1821 85.531 38.4474 85.4335 38.6953C85.336 38.9431 85.1884 39.1682 84.9999 39.3564C84.7199 39.645 84.3392 39.8142 83.9373 39.8286H78.5063L78.2229 40.112C78.7364 39.5714 79.1367 38.9336 79.4003 38.2362C79.6638 37.5387 79.7854 36.7956 79.7578 36.0505C79.8406 34.5045 79.3151 32.9874 78.2937 31.8237C77.7161 31.233 77.0195 30.7717 76.2501 30.4704C75.4807 30.1692 74.6561 30.0349 73.8308 30.0763H67.2663C66.5122 29.9919 65.7489 30.0991 65.0472 30.388C64.3456 30.677 63.7281 31.1383 63.2521 31.7293C63.1236 31.2575 62.933 30.8049 62.6853 30.3833L60.5838 31.6584C61.1506 32.8585 61.4025 34.1831 61.3158 35.5074V39.8286H19.7091C19.5091 39.8267 19.3117 39.7838 19.1289 39.7025C18.9462 39.6213 18.782 39.5035 18.6465 39.3564C18.4502 39.173 18.2958 38.9493 18.1939 38.7007C18.092 38.4521 18.0451 38.1844 18.0562 37.916V27.6914H15.506V37.8924C15.5156 38.1585 15.4703 38.4238 15.3728 38.6717C15.2753 38.9195 15.1277 39.1446 14.9392 39.3328C14.8038 39.4799 14.6396 39.5977 14.4568 39.6789C14.2741 39.7601 14.0766 39.8031 13.8766 39.805H13.0974C12.7814 39.8289 12.4639 39.789 12.1637 39.6875C11.8635 39.5861 11.5867 39.4253 11.35 39.2147C11.116 38.9477 10.9371 38.6371 10.8236 38.3008C10.7102 37.9644 10.6644 37.6089 10.6888 37.2548V32.9808C10.6614 32.4422 10.4672 31.9256 10.1329 31.5024C9.79862 31.0793 9.34096 30.7707 8.82338 30.6195C7.91322 30.2314 6.93187 30.0384 5.94255 30.0527C5.11891 30.0067 4.2949 30.1366 3.52538 30.4338C2.75585 30.731 2.05849 31.1888 1.47964 31.7765C0.462677 32.9427 -0.0621485 34.4579 0.0156263 36.0033C-0.0615205 37.0115 0.148077 38.021 0.620227 38.9151C1.09238 39.8093 1.8078 40.5517 2.68391 41.0565C3.39827 41.4923 4.20966 41.7438 5.04524 41.7886H5.44666C6.15088 41.788 6.84842 41.6517 7.50104 41.3871C8.16207 41.1702 8.76131 40.7977 9.2484 40.3009C9.88698 40.9569 10.711 41.4019 11.6097 41.576H12.6251C12.9789 41.5996 13.3339 41.5996 13.6877 41.576M7.9497 36.9714C7.91273 37.4903 7.72873 37.988 7.41929 38.4061C7.10984 38.8243 6.68773 39.1457 6.2023 39.3328C5.90199 39.4541 5.58162 39.5181 5.25775 39.5217H5.06887C4.6796 39.4918 4.3012 39.3791 3.95904 39.1911C3.39688 38.8216 2.94738 38.3044 2.65995 37.6963C2.37251 37.0881 2.25826 36.4124 2.32972 35.7435C2.25131 34.6562 2.59846 33.5809 3.29788 32.7447C3.60589 32.4355 3.97494 32.194 4.38151 32.0354C4.78807 31.8768 5.22323 31.8048 5.65921 31.8237C6.22562 31.809 6.78879 31.9135 7.31213 32.1307C7.66633 32.2724 7.85523 32.4613 7.85523 32.6974L7.9497 36.9714ZM76.0268 38.6007C75.7218 38.9153 75.3538 39.1621 74.9469 39.3248C74.54 39.4876 74.1034 39.5627 73.6655 39.5453H63.866V35.7672C63.7813 34.6718 64.1289 33.5869 64.8342 32.7447C65.1425 32.4374 65.5122 32.1986 65.9191 32.044C66.326 31.8894 66.7609 31.8223 67.1955 31.8473H73.76C74.1946 31.8223 74.6295 31.8894 75.0364 32.044C75.4433 32.1986 75.813 32.4374 76.1213 32.7447C76.8179 33.5917 77.1642 34.673 77.0895 35.7672C77.1185 36.2815 77.0458 36.7964 76.8756 37.2827C76.7054 37.7689 76.4411 38.2168 76.0977 38.6007" fill="#626366"/>
<path d="M15.5054 46.4414H18.1028L25.7063 59.476V46.4414H28.0204V63.0416H25.423L17.8195 49.889V63.0416H15.5054V46.4414Z" fill="#626366"/>
<path d="M36.5934 46.3928H38.9547L44.9525 62.9221H42.6148L40.9619 57.987H34.5627L32.7681 62.9221H30.4067L36.5934 46.3928ZM37.7505 48.7542L35.1766 56.0507H40.2535L37.7505 48.7542Z" fill="#626366"/>
<path d="M46.2259 57.4916H48.5873V57.9875C48.5607 58.2466 48.5607 58.5077 48.5873 58.7667C48.6129 58.966 48.6524 59.1633 48.7053 59.3571C48.777 59.5198 48.8725 59.6711 48.9887 59.8057C49.1132 59.9566 49.256 60.0915 49.4138 60.2072C50.4065 60.9827 51.6521 61.3614 52.9085 61.2698C53.4727 61.2706 54.0352 61.2072 54.5851 61.0809C55.0342 60.974 55.4642 60.7988 55.8602 60.5614C56.1981 60.3462 56.4811 60.0551 56.6867 59.7113C56.8973 59.389 57.0044 59.01 56.9936 58.6251C56.9995 58.2425 56.9123 57.8642 56.7395 57.5228C56.5667 57.1814 56.3136 56.887 56.0018 56.6652C55.718 56.4522 55.398 56.2923 55.0573 56.1929L49.9568 54.8942C49.0335 54.5935 48.2146 54.0366 47.5955 53.2885C47.1176 52.5938 46.8623 51.7703 46.8635 50.9271C46.8558 50.2577 47.0011 49.5954 47.2885 48.9908C47.573 48.4107 47.9847 47.9023 48.4928 47.5032C49.0479 47.0656 49.6809 46.7371 50.3583 46.5351C51.1229 46.2982 51.9191 46.1788 52.7196 46.1809C53.3867 46.1764 54.0521 46.2476 54.7031 46.3934C55.2923 46.5183 55.8635 46.7166 56.4033 46.9837C56.8803 47.2315 57.3116 47.5589 57.6784 47.9519C58.0234 48.314 58.2959 48.7388 58.4813 49.2034C58.5608 49.4588 58.6239 49.7191 58.6702 49.9826C58.6961 50.3206 58.6961 50.66 58.6702 50.998V51.5647H56.3088C56.3088 51.2813 56.3088 51.0688 56.3088 50.8799C56.3244 50.715 56.3244 50.549 56.3088 50.384C56.2837 50.2541 56.2441 50.1273 56.1908 50.0062C56.1371 49.8834 56.0739 49.765 56.0018 49.652C55.8589 49.4299 55.6745 49.2375 55.4588 49.0853C55.2266 48.9111 54.9726 48.7681 54.7031 48.6603C54.0683 48.4251 53.3966 48.3052 52.7196 48.306C52.2577 48.2986 51.7969 48.3542 51.35 48.4713C50.9552 48.574 50.5801 48.7416 50.2402 48.9672C49.9433 49.1813 49.694 49.4547 49.5082 49.7701C49.3343 50.0971 49.245 50.4624 49.2484 50.8327C49.2214 51.0601 49.2214 51.29 49.2484 51.5175C49.2945 51.7199 49.3921 51.907 49.5318 52.0606C49.689 52.2303 49.8724 52.3738 50.0749 52.4856C50.3653 52.6313 50.6651 52.7575 50.9722 52.8634L56.2852 54.2094C57.1767 54.4435 57.9628 54.9721 58.5158 55.7095C59.0688 56.4468 59.3562 57.3495 59.3313 58.2709C59.3345 58.9404 59.2145 59.6048 58.9771 60.2308C58.7227 60.8629 58.3269 61.4283 57.8201 61.8837C57.2286 62.403 56.5377 62.7967 55.7893 63.0408C54.8275 63.3444 53.8224 63.488 52.8141 63.4658C51.0412 63.5959 49.2766 63.1215 47.808 62.1199C47.2273 61.6341 46.7718 61.0159 46.48 60.3173C46.1882 59.6186 46.0687 58.8601 46.1315 58.1056L46.2259 57.4916Z" fill="#626366"/>
<path d="M62.4045 46.4414H64.7187V60.9636H73.1014V63.0416H62.4045V46.4414Z" fill="#626366"/>
<path d="M79.6859 46.3928H82.0472L88.0213 62.9221H85.5892L83.9363 57.987H77.537L75.7424 62.9221H73.3811L79.6859 46.3928ZM80.8429 48.7542L78.2691 56.0507H83.2515L80.8429 48.7542Z" fill="#626366"/>
</g>
<defs>
<clipPath id="clip0_1_326">
<rect width="150" height="62.974" fill="white" transform="translate(0 0.512939)"/>
</clipPath>
</defs>
</svg>
