<svg width="1041" height="491" viewBox="0 0 1041 491" fill="none" xmlns="http://www.w3.org/2000/svg">
<path fill-rule="evenodd" clip-rule="evenodd" d="M592.605 963.395C437.923 944.14 325.604 1010.25 217.133 1085.34C98.3938 1167.5 -15.2124 1261.85 -158.342 1262.49C-400.955 1262.49 -395.821 908.197 -415.076 594.981C-430.48 328.619 -460.004 86.0059 -705.827 0C-555.638 16.0459 -454.227 24.3898 -370.147 75.7366C-286.066 127.083 -227.659 245.181 -195.567 386.385C-162.456 559.328 -141.013 734.302 -131.384 910.123C-108.919 1185.47 233.82 894.077 253.717 884.449C6.60999 786.248 -3.01672 602.683 -24.1973 440.299C-40.885 293.319 -64.6335 160.459 -306.605 75.0946C-189.289 100.345 -67.3322 93.4716 46.404 55.1979C127.84 22.7615 216.225 11.7135 303.139 23.1061C431.506 51.3469 484.778 215.657 555.38 415.268C634.968 637.984 738.303 907.555 944.332 972.381C839.713 982.65 764.618 994.845 676.045 940.289C587.472 885.733 498.257 741.32 431.506 587.921C367.323 445.434 322.394 295.244 283.242 178.43C232.537 27.5988 4.68451 164.31 -6.86853 166.236C206.863 257.376 231.252 396.012 259.493 545.56C290.943 709.228 328.811 885.733 586.829 963.395M991.827 933.871C1008.16 928.316 1021.97 917.124 1030.79 902.303C1039.62 887.482 1042.87 870.001 1039.96 852.999C1030.98 756.724 874.372 613.595 645.879 478.809C736.808 556.239 805.298 656.646 844.206 769.56C890.418 874.18 927.002 958.26 991.827 933.871ZM-810.446 15.4039C-938.813 25.6733 -992.085 95.6333 -956.142 189.341C-920.2 283.049 -788.624 406.923 -567.19 498.706C-638.434 457.628 -675.019 362.637 -695.557 269.571C-716.096 176.505 -723.156 94.9915 -734.067 54.5559C-744.978 14.1203 -755.89 11.5529 -809.804 15.4039" fill="#F5F4F4" fill-opacity="0.12"/>
</svg>
