<svg width="16" height="14" viewBox="0 0 16 14" fill="none" xmlns="http://www.w3.org/2000/svg">
<path d="M14.8535 5.39637V5.06188C14.8535 4.44041 14.8535 4.12967 14.8123 3.86968C14.5857 2.43845 13.4632 1.31596 12.032 1.08928C11.772 1.0481 11.4612 1.0481 10.8397 1.0481H6.82596C4.95269 1.0481 4.01605 1.0481 3.30055 1.41266C2.67118 1.73334 2.15948 2.24503 1.83881 2.8744C1.47424 3.5899 1.47424 4.52654 1.47424 6.39981V7.73774C1.47424 9.61104 1.47424 10.5477 1.83881 11.2632C2.15948 11.8925 2.67118 12.4042 3.30055 12.7249C4.01605 13.0895 4.95269 13.0895 6.82596 13.0895H10.8397C11.4612 13.0895 11.772 13.0895 12.032 13.0483C13.4632 12.8216 14.5857 11.6991 14.8123 10.2679C14.8535 10.0079 14.8535 9.69714 14.8535 9.07567V8.74119M12.1777 4.39292L11.5087 4.8389L11.1325 5.08971C10.0596 5.80497 9.52316 6.1626 8.94337 6.30154C8.43094 6.4243 7.89684 6.4243 7.38441 6.30154C6.80461 6.1626 6.26816 5.80497 5.19529 5.08971L4.81907 4.8389L4.1501 4.39292" stroke="white" stroke-width="1.00345" stroke-linecap="round"/>
</svg>
