<svg width="20" height="21" viewBox="0 0 20 21" fill="none" xmlns="http://www.w3.org/2000/svg">
<path d="M10 0.909058C4.83 0.909058 0.625 5.11406 0.625 10.2841C0.625 12.8141 1.67 15.2591 3.5 17.0241V19.1891C3.5 19.5141 3.66 19.8241 3.93 20.0091C4.1 20.1291 4.30005 20.1891 4.5 20.1891C4.62 20.1891 4.735 20.1641 4.85 20.1241L7.225 19.2341C8.13 19.5141 9.065 19.6591 10 19.6591C15.17 19.6591 19.375 15.4541 19.375 10.2841C19.375 5.11406 15.17 0.909058 10 0.909058ZM15.395 8.21406L12.16 12.3741C11.86 12.7641 11.305 12.8741 10.875 12.6291L8.02 10.9941L5.27495 12.8241C5.19495 12.8791 5.09495 12.9091 4.99995 12.9091C4.86495 12.9091 4.73495 12.8541 4.63495 12.7541C4.46995 12.5741 4.45495 12.3041 4.59995 12.1091L7.33495 8.46406C7.63495 8.05906 8.19495 7.94406 8.62995 8.19406L11.4699 9.81406L14.7099 7.50406C14.9099 7.35906 15.1899 7.38406 15.3599 7.56406C15.5349 7.74406 15.545 8.01906 15.395 8.21406Z" fill="#009D8C"/>
</svg>
