<svg width="25" height="25" viewBox="0 0 24 25" fill="none" xmlns="http://www.w3.org/2000/svg">
<path d="M8.53428 5.47021C8.32648 5.46564 8.12242 5.52588 7.95046 5.64265C7.77851 5.75942 7.6472 5.92694 7.57481 6.12178C7.50242 6.31662 7.49253 6.52914 7.54652 6.72986C7.60052 6.93058 7.71571 7.10941 7.87608 7.24164L13.9952 12.4838L7.87608 17.7241C7.76514 17.8057 7.67223 17.9092 7.60318 18.0283C7.53412 18.1474 7.49039 18.2795 7.47474 18.4163C7.45909 18.5531 7.47186 18.6916 7.51223 18.8232C7.5526 18.9549 7.61972 19.0768 7.70938 19.1813C7.79903 19.2858 7.9093 19.3705 8.03326 19.4304C8.15723 19.4903 8.29223 19.5239 8.4298 19.5293C8.56738 19.5346 8.70457 19.5115 8.83278 19.4613C8.961 19.4111 9.07747 19.335 9.17491 19.2378L16.1808 13.2436C16.2908 13.1497 16.3791 13.0332 16.4397 12.9018C16.5003 12.7705 16.5317 12.6275 16.5317 12.4829C16.5317 12.3383 16.5003 12.1953 16.4397 12.064C16.3791 11.9326 16.2908 11.816 16.1808 11.7221L9.17491 5.72212C8.99793 5.56492 8.77093 5.47578 8.53428 5.47021Z" fill="#1F2937"/>
</svg>
