<svg width="18" height="18" viewBox="0 0 18 18" fill="none" xmlns="http://www.w3.org/2000/svg">
<path d="M15.325 6.0134C15.4221 6.01424 15.5188 5.99509 15.6082 5.95725C15.6977 5.91941 15.7775 5.86372 15.8445 5.79343C16.5854 5.11972 17.0551 4.19865 17.1649 3.20334C17.1771 2.9511 17.137 2.69907 17.0477 2.46286C16.9583 2.22666 16.8215 2.01138 16.6453 1.83042C16.4692 1.64946 16.2579 1.50665 16.0242 1.41098C15.7905 1.31532 15.5394 1.26888 15.2869 1.27439C15.0344 1.27989 14.7858 1.33733 14.5565 1.44309C14.3271 1.54885 14.122 1.70067 13.9539 1.88913C13.7858 2.0776 13.6589 2.29855 13.5799 2.53843C13.5009 2.7783 13.4717 3.03195 13.4949 3.28342C13.6236 4.24567 14.0831 5.13311 14.7947 5.79343C14.9353 5.93412 15.1262 6.01323 15.325 6.0134ZM14.4354 2.36338C14.6038 2.18256 14.8223 2.05672 15.0633 2.00217C15.3043 1.94762 15.5561 1.96693 15.7859 2.05759C16.0158 2.14825 16.2134 2.30596 16.3524 2.51035C16.4913 2.71474 16.5656 2.95622 16.5652 3.20334C16.4558 4.03936 16.0509 4.8089 15.4246 5.37339C15.3971 5.39798 15.3619 5.41159 15.325 5.41159C15.2881 5.41159 15.2529 5.39798 15.2254 5.37339C14.6197 4.81902 14.2203 4.07477 14.0945 3.2634C14.089 3.09836 14.1163 2.93387 14.1746 2.77939C14.233 2.62492 14.322 2.4835 14.4354 2.36338ZM16.3045 3.21335C16.3045 3.01557 16.2464 2.82226 16.1365 2.65781C16.0267 2.49336 15.87 2.36521 15.6873 2.28952C15.5046 2.21384 15.3041 2.19405 15.1102 2.23264C14.9162 2.27122 14.7373 2.36647 14.5975 2.50632C14.4576 2.64617 14.3626 2.8243 14.324 3.01828C14.2854 3.21226 14.305 3.41332 14.3807 3.59604C14.4564 3.77877 14.5854 3.93501 14.7498 4.0449C14.9143 4.15478 15.1067 4.21335 15.3045 4.21335C15.5697 4.21335 15.825 4.10804 16.0125 3.92051C16.2 3.73297 16.3045 3.47857 16.3045 3.21335ZM14.9451 3.21335C14.9451 3.11257 14.9852 3.01594 15.0565 2.94468C15.1277 2.87341 15.2242 2.83335 15.325 2.83335C15.4258 2.83335 15.5223 2.87341 15.5936 2.94468C15.6648 3.01594 15.7049 3.11257 15.7049 3.21335C15.7049 3.31413 15.6648 3.41089 15.5936 3.48215C15.5223 3.55341 15.4258 3.59336 15.325 3.59336C15.2242 3.59336 15.1277 3.55341 15.0565 3.48215C14.9852 3.41089 14.9451 3.31413 14.9451 3.21335ZM17.2147 13.9134C17.1987 13.8492 17.1619 13.7922 17.1092 13.7522C17.0564 13.7121 16.9908 13.6915 16.9246 13.6935H16.3953V12.2234C16.3953 12.1844 16.3871 12.1459 16.3719 12.1101C16.3567 12.0742 16.3345 12.0418 16.3065 12.0147C16.2785 11.9877 16.2451 11.9665 16.2088 11.9525C16.1725 11.9385 16.1335 11.9321 16.0945 11.9334H15.9949L15.1248 12.2634C14.9508 11.8404 14.6764 11.4662 14.325 11.1734H15.4949C15.7336 11.1734 15.9629 11.0785 16.1316 10.9098C16.3004 10.741 16.3953 10.5121 16.3953 10.2734V7.71335C16.3953 7.47466 16.3004 7.24578 16.1316 7.077C15.9629 6.90822 15.7336 6.81345 15.4949 6.81345H12.0545C12.2427 6.74418 12.4153 6.63756 12.5613 6.5001C12.7074 6.36263 12.8245 6.19709 12.9051 6.0134C13.0142 5.79456 13.0779 5.55576 13.0916 5.31162C13.1054 5.06748 13.069 4.82307 12.9852 4.59336C12.9554 4.48365 12.8987 4.38323 12.8201 4.30112C12.7415 4.21902 12.6433 4.15787 12.535 4.12339C12.4107 4.08835 12.2793 4.08835 12.1551 4.12339C12.2495 3.63251 12.2692 3.13027 12.2147 2.6334C12.1665 2.13563 11.9946 1.6578 11.7147 1.24338C11.4112 0.831671 11.0074 0.504353 10.5418 0.292576C10.0762 0.0807984 9.56426 -0.00836735 9.0545 0.0334206C8.59615 -0.0234808 8.13171 0.0156064 7.68927 0.148167C7.24683 0.280727 6.83672 0.503881 6.48517 0.80344C6.17696 1.10538 5.98284 1.50461 5.93536 1.93344C5.50536 2.33345 5.4452 3.07339 5.7752 4.12339C5.66661 4.09855 5.55372 4.09855 5.44513 4.12339C5.33681 4.15787 5.23858 4.21902 5.15997 4.30112C5.08136 4.38323 5.02468 4.48365 4.99493 4.59336C4.83569 5.05905 4.86447 5.56854 5.07501 6.0134C5.15698 6.19618 5.27386 6.36097 5.41974 6.49826C5.56561 6.63556 5.73721 6.74269 5.92462 6.81345H2.46466C2.22596 6.81345 1.9977 6.90822 1.82891 7.077C1.66013 7.24578 1.56524 7.47466 1.56524 7.71335V10.2734C1.56524 10.5121 1.66013 10.741 1.82891 10.9098C1.9977 11.0785 2.22596 11.1734 2.46466 11.1734H3.63458C3.28827 11.4687 3.0174 11.8424 2.84454 12.2634L1.98516 11.9334C1.91087 11.9077 1.82967 11.912 1.7586 11.9457C1.68753 11.9793 1.63239 12.0396 1.60528 12.1134C1.60063 12.1465 1.60063 12.1802 1.60528 12.2134V13.6834H1.0545C0.989139 13.6849 0.925922 13.7068 0.873837 13.7463C0.821752 13.7858 0.783915 13.8408 0.76495 13.9034C0.554912 14.6523 0.554912 15.4446 0.76495 16.1935C0.783915 16.256 0.821752 16.3109 0.873837 16.3504C0.925922 16.3899 0.989139 16.412 1.0545 16.4134H1.60528V17.1334C1.60389 17.1732 1.61023 17.2128 1.62481 17.2499C1.6394 17.2869 1.66113 17.3205 1.68927 17.3486C1.71741 17.3767 1.75185 17.3988 1.78888 17.4134C1.82591 17.428 1.86531 17.4348 1.90509 17.4334H16.115C16.1548 17.4348 16.1942 17.428 16.2313 17.4134C16.2683 17.3988 16.3018 17.3767 16.3299 17.3486C16.358 17.3205 16.3807 17.2869 16.3953 17.2499C16.4099 17.2128 16.4162 17.1732 16.4149 17.1334V16.4134H16.9451C17.0113 16.4154 17.076 16.3946 17.1287 16.3546C17.1815 16.3146 17.2192 16.2577 17.2352 16.1935C17.4452 15.4446 17.4452 14.6523 17.2352 13.9034M14.5848 12.4634L13.5848 12.8534V11.3834C14.0293 11.6217 14.3813 12.0019 14.5848 12.4634ZM9.09454 11.9334C9.03961 11.9136 8.97954 11.9136 8.92462 11.9334L6.26544 12.7434L6.32501 10.6434L6.51544 10.5733C6.827 10.9015 7.19953 11.1651 7.61309 11.3489C8.02666 11.5326 8.47222 11.6327 8.92462 11.6439C9.37701 11.655 9.8277 11.5769 10.2498 11.4138C10.6719 11.2507 11.0572 11.0059 11.3846 10.6935L11.4852 10.6034L11.6951 10.6734L11.7449 12.7434L9.09454 11.9334ZM6.83477 8.37339L6.95489 8.50339V9.27341C6.95526 9.41994 6.91013 9.563 6.82599 9.68296C6.74184 9.80291 6.62307 9.89392 6.48517 9.94345L6.28497 10.0134C6.24061 9.92594 6.16867 9.85585 6.07989 9.81418C5.99112 9.77251 5.89036 9.76167 5.79474 9.78342L5.0252 9.95334C4.87401 9.98566 4.7352 10.0616 4.62677 10.1718C4.51834 10.2821 4.44471 10.4216 4.41485 10.5733H4.20489V7.41343H6.20489C6.33298 7.77156 6.5301 8.10107 6.78497 8.3834L6.83477 8.37339ZM7.67462 2.37339C8.08992 2.31874 8.51198 2.39195 8.88458 2.58335C8.9234 2.60272 8.96619 2.61289 9.00958 2.61289C9.05296 2.61289 9.09576 2.60272 9.13458 2.58335C9.50718 2.39195 9.92924 2.31874 10.3445 2.37339C10.7945 2.58339 11.1552 2.74345 11.0652 3.94345C11.0461 3.99507 11.0461 4.05175 11.0652 4.10337L11.3748 4.71335V6.28342C11.3773 6.89336 11.145 7.48078 10.7254 7.92344C10.3552 8.35711 9.88938 8.69935 9.36505 8.92344C9.11314 8.99333 8.84645 8.99333 8.59454 8.92344C8.07021 8.69935 7.60539 8.35711 7.23517 7.92344C6.81553 7.48078 6.58233 6.89336 6.58477 6.28342V4.71335L6.89532 4.10337C6.91447 4.05175 6.91447 3.99507 6.89532 3.94345C6.80532 2.74345 7.16505 2.58339 7.61505 2.37339H7.67462ZM12.9949 9.91343L12.2147 9.74338C12.1142 9.72331 12.0097 9.7381 11.9188 9.78537C11.8278 9.83265 11.7559 9.9096 11.7147 10.0034L11.5047 9.93344C11.3756 9.88936 11.2634 9.80571 11.1844 9.69443C11.1054 9.58315 11.0642 9.4499 11.0652 9.31345V8.46335L11.1854 8.33335C11.4544 8.04481 11.6613 7.70458 11.7947 7.33335H13.7947V10.4934H13.5848C13.5549 10.3417 13.4813 10.2021 13.3729 10.0919C13.2644 9.98168 13.1266 9.9057 12.9754 9.87339M10.8953 10.2334C10.3704 10.7119 9.68573 10.9771 8.9754 10.9771C8.26507 10.9771 7.57945 10.7119 7.0545 10.2334C7.20176 10.1111 7.32127 9.95845 7.40411 9.78586C7.48695 9.61328 7.53164 9.42478 7.53497 9.23337V8.98337C7.8012 9.19377 8.09782 9.36238 8.41485 9.48337C8.78992 9.59596 9.19018 9.59596 9.56524 9.48337C9.88227 9.36238 10.1789 9.19377 10.4451 8.98337V9.31345C10.4407 9.50316 10.4786 9.69142 10.5565 9.86448C10.6343 10.0375 10.7504 10.191 10.8953 10.3134V10.2334ZM5.04474 13.0034L4.9754 10.6534C4.97396 10.608 4.9872 10.5634 5.01446 10.5271C5.04173 10.4907 5.08081 10.4647 5.12481 10.4533L5.71466 10.3233L5.64532 12.8534L5.09454 13.0234L5.04474 13.0034ZM12.325 12.8534L12.2654 10.3333L12.8445 10.4533C12.8895 10.4629 12.9302 10.4885 12.9578 10.5252C12.9854 10.562 12.9984 10.6076 12.9949 10.6534L12.9354 12.9934H12.8748L12.325 12.8534ZM15.7947 7.6334V10.1935C15.7961 10.2332 15.7898 10.2728 15.7752 10.3098C15.7606 10.3468 15.7379 10.3805 15.7098 10.4087C15.6816 10.4368 15.6482 10.4588 15.6111 10.4734C15.5741 10.4879 15.5347 10.4948 15.4949 10.4934H15.365V7.33335H15.4949C15.5347 7.33195 15.5741 7.33878 15.6111 7.35337C15.6482 7.36795 15.6816 7.39005 15.7098 7.41819C15.7379 7.44633 15.7606 7.47991 15.7752 7.51694C15.7898 7.55397 15.7961 7.59362 15.7947 7.6334ZM14.7947 10.4934H14.4149V7.33335H14.7947V10.4934ZM12.3846 4.61338C12.4173 4.63904 12.442 4.67382 12.4549 4.71335C12.5138 4.87528 12.5394 5.04758 12.5291 5.21958C12.5188 5.39158 12.4732 5.55963 12.3953 5.71335C12.3134 5.89073 12.1814 6.04027 12.0154 6.14341V4.8834C12.1072 4.78941 12.226 4.72643 12.3553 4.70334L12.3846 4.61338ZM6.38458 2.24338C6.42797 2.21609 6.46322 2.17741 6.48614 2.13157C6.50907 2.08572 6.51964 2.03446 6.51544 1.98337C6.53187 1.66261 6.66726 1.35954 6.89532 1.1334C7.19262 0.897188 7.53427 0.723283 7.9002 0.621922C8.26614 0.52056 8.64874 0.49385 9.0252 0.54343C9.44639 0.498227 9.87132 0.567187 10.2566 0.743137C10.642 0.919088 10.973 1.19554 11.2147 1.54343C11.4307 1.87084 11.568 2.24397 11.615 2.6334C11.63 2.86315 11.63 3.09358 11.615 3.32334C11.6169 2.9938 11.5143 2.67219 11.3221 2.40451C11.1299 2.13684 10.8576 1.93685 10.5447 1.83335C10.0164 1.68907 9.45331 1.74613 8.96466 1.99338C8.47209 1.74729 7.90654 1.69033 7.37481 1.83335C6.74481 2.12335 6.2245 2.47335 6.3045 3.83335C6.0545 3.01335 6.07505 2.44338 6.36505 2.24338M5.58477 5.67344C5.50805 5.51935 5.46325 5.35136 5.45294 5.17954C5.44263 5.00772 5.46745 4.83559 5.5252 4.67344C5.53812 4.63391 5.56182 4.599 5.59454 4.57334C5.73087 4.5819 5.86085 4.63457 5.96466 4.72336V6.07334C5.7987 5.97021 5.66671 5.82079 5.58477 5.64341V5.67344ZM2.13458 10.1935V7.6334C2.13458 7.55383 2.16621 7.4775 2.22247 7.42124C2.27873 7.36498 2.3558 7.33335 2.43536 7.33335H2.57501V10.4934H2.43536C2.3558 10.4934 2.27873 10.4618 2.22247 10.4055C2.16621 10.3492 2.13458 10.273 2.13458 10.1935ZM3.13458 7.33335H3.51544V10.4934H3.13458V7.33335ZM4.32501 11.3333V12.8134L3.32501 12.4334C3.52476 11.9645 3.87717 11.5768 4.32501 11.3333ZM1.19513 14.2434H1.82501C2.01283 14.2649 2.18647 14.3547 2.31231 14.4958C2.43816 14.6369 2.50763 14.8193 2.50763 15.0084C2.50763 15.1974 2.43816 15.3799 2.31231 15.521C2.18647 15.662 2.01283 15.7519 1.82501 15.7734H1.16485C1.06488 15.2683 1.06488 14.7485 1.16485 14.2434M4.98517 15.0934C4.94539 15.092 4.90598 15.0988 4.86895 15.1134C4.83192 15.128 4.79749 15.1501 4.76934 15.1782C4.7412 15.2063 4.71947 15.2399 4.70489 15.277C4.69031 15.314 4.68396 15.3536 4.68536 15.3934V16.7934H2.08477V16.3434C2.38672 16.2738 2.65648 16.1039 2.84942 15.8614C3.04236 15.619 3.14727 15.3183 3.14727 15.0084C3.14727 14.6985 3.04236 14.3978 2.84942 14.1554C2.65648 13.9129 2.38672 13.743 2.08477 13.6734V12.6034L4.87481 13.6034C4.93921 13.628 5.01062 13.628 5.07501 13.6034L8.59454 12.5234V16.8834H5.28497V15.4834C5.28247 15.4046 5.24988 15.3297 5.19415 15.274C5.13842 15.2183 5.06394 15.1859 4.98517 15.1834V15.0934ZM9.18536 16.7934V12.5833L12.4852 13.5833V14.8834C12.4838 14.9232 12.4901 14.9628 12.5047 14.9999C12.5193 15.0369 12.542 15.0705 12.5701 15.0986C12.5983 15.1267 12.6317 15.1488 12.6688 15.1634C12.7058 15.178 12.7452 15.1848 12.785 15.1834C12.8645 15.1834 12.9406 15.1518 12.9969 15.0956C13.0531 15.0393 13.0848 14.963 13.0848 14.8834V13.6334L15.6951 12.6334V13.7033C15.3853 13.7636 15.1059 13.9297 14.9051 14.1733C14.7043 14.4169 14.5945 14.7228 14.5945 15.0384C14.5945 15.3541 14.7043 15.6598 14.9051 15.9034C15.1059 16.147 15.3853 16.3131 15.6951 16.3734V16.8233L9.18536 16.7934ZM16.5945 15.7934H15.9754C15.7876 15.7719 15.6139 15.6821 15.4881 15.541C15.3623 15.3999 15.2928 15.2175 15.2928 15.0284C15.2928 14.8394 15.3623 14.6569 15.4881 14.5158C15.6139 14.3748 15.7876 14.2849 15.9754 14.2634H16.5945C16.7045 14.7675 16.7045 15.2894 16.5945 15.7934ZM5.28497 14.4634C5.28247 14.5421 5.24988 14.617 5.19415 14.6727C5.13842 14.7284 5.06394 14.7609 4.98517 14.7634C4.9056 14.7634 4.82951 14.7318 4.77325 14.6755C4.71699 14.6192 4.68536 14.5429 4.68536 14.4634C4.68396 14.4236 4.69031 14.384 4.70489 14.347C4.71947 14.31 4.7412 14.2763 4.76934 14.2481C4.79749 14.22 4.83192 14.198 4.86895 14.1834C4.90598 14.1689 4.94539 14.162 4.98517 14.1634C5.06473 14.1634 5.14082 14.1951 5.19708 14.2513C5.25334 14.3076 5.28497 14.3838 5.28497 14.4634ZM13.0848 15.8034C13.0848 15.883 13.0531 15.9592 12.9969 16.0155C12.9406 16.0717 12.8645 16.1034 12.785 16.1034C12.7452 16.1048 12.7058 16.0979 12.6688 16.0833C12.6317 16.0688 12.5983 16.0468 12.5701 16.0187C12.542 15.9905 12.5193 15.9568 12.5047 15.9198C12.4901 15.8827 12.4838 15.8432 12.4852 15.8034C12.4852 15.7239 12.5168 15.6475 12.5731 15.5913C12.6293 15.535 12.7054 15.5034 12.785 15.5034C12.8388 15.4845 12.8972 15.4808 12.9529 15.4928C13.0087 15.5047 13.06 15.5319 13.1014 15.5711C13.1427 15.6104 13.1725 15.6603 13.1873 15.7154C13.2021 15.7705 13.2015 15.8287 13.1854 15.8834L13.0848 15.8034Z" fill="#BF8E54"/>
</svg>
