<svg width="16" height="16" viewBox="0 0 16 16" fill="none" xmlns="http://www.w3.org/2000/svg">
<path d="M5.95404 1.74983C6.95377 3.19981 7.82664 4.7106 8.57226 6.26697M8.57226 6.26697C10.1294 5.5882 11.5881 4.61221 12.8624 3.33824M8.57226 6.26697C8.9612 7.07869 9.31548 7.90285 9.63505 8.73718M11.1729 14.0253C10.9486 12.9208 10.6681 11.8257 10.3313 10.7444M14.8054 8.66467C13.0468 8.28001 11.2843 8.32584 9.63505 8.73718M9.63505 8.73718C7.17647 9.35042 4.96958 10.7761 3.40225 12.7989M3.40225 12.7989C6.01477 15.4113 10.2498 15.4113 12.8624 12.7988C15.4749 10.1864 15.4749 5.9507 12.8624 3.33824M3.40225 12.7989C0.789704 10.1864 0.789035 5.95072 3.40158 3.33827C6.01412 0.725803 10.2499 0.725776 12.8624 3.33824M1.48375 7.35202C3.03209 7.51619 4.60238 7.42354 6.12526 7.07347" stroke="white" stroke-width="1.00345" stroke-linecap="round" stroke-linejoin="round"/>
</svg>
